HIERARCHY
ROOT Hips
{
	OFFSET 0.000000 0.000000 0.000000
	CHANNELS 6 Xposition Yposition Zposition Xrotation Yrotation Zrotation
	JOINT LeftUpLeg_virtual
	{
		OFFSET 0.000000 0.000000 0.000000
		CHANNELS 3 Xrotation Yrotation Zrotation
		JOINT LeftUpLeg
		{
			OFFSET 11.394100 -6.187798 -0.413800
			CHANNELS 3 Xrotation Yrotation Zrotation
			JOINT LeftLeg
			{
				OFFSET 0.430247 -32.302673 3.732800
				CHANNELS 3 Xrotation Yrotation Zrotation
				JOINT LeftFoot
				{
					OFFSET -0.430247 -48.264931 -6.423300
					CHANNELS 3 Xrotation Yrotation Zrotation
					JOINT LeftToeBase
					{
						OFFSET 4.230900 -16.068199 23.438400
						CHANNELS 3 Xrotation Yrotation Zrotation
						JOINT LeftToe_End
						{
							OFFSET 4.510700 0.695400 19.974600
							CHANNELS 3 Xrotation Yrotation Zrotation
							End Site
							{
								OFFSET 0 0 0
							}
						}
					}
				}
			}
		}
	}
	JOINT RightUpLeg_virtual
	{
		OFFSET 0.000000 0.000000 0.000000
		CHANNELS 3 Xrotation Yrotation Zrotation
		JOINT RightUpLeg
		{
			OFFSET -11.333700 -6.187798 -0.413800
			CHANNELS 3 Xrotation Yrotation Zrotation
			JOINT RightLeg
			{
				OFFSET -0.430392 -32.302628 3.733000
				CHANNELS 3 Xrotation Yrotation Zrotation
				JOINT RightFoot
				{
					OFFSET 0.430392 -48.264973 -6.423500
					CHANNELS 3 Xrotation Yrotation Zrotation
					JOINT RightToeBase
					{
						OFFSET -4.230900 -16.068199 23.438400
						CHANNELS 3 Xrotation Yrotation Zrotation
						JOINT RightToe_End
						{
							OFFSET -4.510700 0.695400 19.974600
							CHANNELS 3 Xrotation Yrotation Zrotation
							End Site
							{
								OFFSET 0 0 0
							}
						}
					}
				}
			}
		}
	}
	JOINT Spine_virtual
	{
		OFFSET 0.000000 0.000000 0.000000
		CHANNELS 3 Xrotation Yrotation Zrotation
		JOINT Spine
		{
			OFFSET -0.002400 12.777504 0.315300
			CHANNELS 3 Xrotation Yrotation Zrotation
			JOINT Spine1
			{
				OFFSET -0.002067 5.816869 0.032633
				CHANNELS 3 Xrotation Yrotation Zrotation
				JOINT Spine1_split
				{
					OFFSET -0.002067 5.816869 0.032633
					CHANNELS 3 Xrotation Yrotation Zrotation
					JOINT Spine2
					{
						OFFSET -0.002067 5.816869 0.032633
						CHANNELS 3 Xrotation Yrotation Zrotation
						JOINT Neck_virtual
						{
							OFFSET 0.000000 0.000000 0.000000
							CHANNELS 3 Xrotation Yrotation Zrotation
							JOINT Neck
							{
								OFFSET -0.003700 21.199493 -0.826900
								CHANNELS 3 Xrotation Yrotation Zrotation
								JOINT Head
								{
									OFFSET 0.000000 20.442200 4.834800
									CHANNELS 3 Xrotation Yrotation Zrotation
									JOINT HeadTop_End
									{
										OFFSET 0.000000 34.668396 4.968400
										CHANNELS 3 Xrotation Yrotation Zrotation
										End Site
										{
											OFFSET 0 0 0
										}
									}
								}
							}
						}
						JOINT LeftShoulder_virtual
						{
							OFFSET 0.000000 0.000000 0.000000
							CHANNELS 3 Xrotation Yrotation Zrotation
							JOINT LeftShoulder
							{
								OFFSET 3.288150 8.794197 -1.372250
								CHANNELS 3 Xrotation Yrotation Zrotation
								JOINT LeftShoulder_split
								{
									OFFSET 3.288150 8.794197 -1.372250
									CHANNELS 3 Xrotation Yrotation Zrotation
									JOINT LeftArm
									{
										OFFSET 11.953299 -2.279007 -0.146200
										CHANNELS 3 Xrotation Yrotation Zrotation
										JOINT LeftForeArm
										{
											OFFSET 18.448900 0.000000 0.000000
											CHANNELS 3 Xrotation Yrotation Zrotation
											JOINT LeftHand
											{
												OFFSET 29.527798 0.000000 0.000000
												CHANNELS 3 Xrotation Yrotation Zrotation
												End Site
												{
													OFFSET 0 0 0
												}
											}
										}
									}
								}
							}
						}
						JOINT RightShoulder_virtual
						{
							OFFSET 0.000000 0.000000 0.000000
							CHANNELS 3 Xrotation Yrotation Zrotation
							JOINT RightShoulder
							{
								OFFSET -3.249400 8.794197 -1.372250
								CHANNELS 3 Xrotation Yrotation Zrotation
								JOINT RightShoulder_split
								{
									OFFSET -3.249400 8.794197 -1.372250
									CHANNELS 3 Xrotation Yrotation Zrotation
									JOINT RightArm
									{
										OFFSET -11.953299 -2.279007 -0.146200
										CHANNELS 3 Xrotation Yrotation Zrotation
										JOINT RightForeArm
										{
											OFFSET -18.448900 0.000000 0.000000
											CHANNELS 3 Xrotation Yrotation Zrotation
											JOINT RightHand
											{
												OFFSET -29.527802 0.000000 0.000000
												CHANNELS 3 Xrotation Yrotation Zrotation
												End Site
												{
													OFFSET 0 0 0
												}
											}
										}
									}
								}
							}
						}
					}
				}
			}
		}
	}
}
MOTION
Frames: 7
Frame Time: 0.03333333
-2.673079 96.059982 -6.835159 0.000000 0.000000 0.000000 -4.383671 -8.164575 2.884466 -19.595983 6.747595 3.797608 29.903186 9.495874 -2.278681 -5.997627 -0.042703 -1.724891 1.541463 0.266282 0.346593 0.000000 0.000000 0.000000 -3.648656 -6.065142 2.943628 -7.549981 -13.872755 -14.976491 22.892907 -1.936358 -5.106867 -8.856080 -1.153886 10.931079 -5.310140 -0.924449 0.388383 0.000000 0.000000 0.000000 -5.078095 -3.988440 1.134723 8.791329 3.394622 -4.399377 1.817540 0.497729 -1.090736 0.768796 0.925540 0.107722 0.000000 0.000000 0.000000 1.246933 0.051390 -0.172407 -4.819193 -1.041599 1.344226 7.898046 3.400881 -4.113649 0.000000 0.000000 0.000000 0.792569 0.400035 -0.851157 0.343231 2.960219 0.311559 -2.487628 -2.606111 0.155653 -12.667318 -5.430323 -65.325446 -1.558685 -34.529202 0.841566 0.000000 0.000000 0.000000 2.546143 0.186836 -0.652205 4.459366 12.162462 -5.628532 -1.231852 0.189153 -1.591770 -1.092211 2.727932 76.409661 -0.515420 36.734393 -0.160913 0.000000 0.000000 0.000000 
-2.877270 96.031860 -7.088898 0.000000 0.000000 0.000000 -4.192909 -7.915791 2.978585 -19.769704 6.727799 3.780157 29.995182 9.495063 -2.237241 -5.745881 0.106731 -1.890597 1.681520 0.242032 0.443140 0.000000 0.000000 0.000000 -3.541397 -6.112146 3.002012 -7.814800 -13.850912 -14.930507 22.768173 -2.131821 -5.168090 -9.192912 -1.145754 10.846738 -4.921046 -0.831714 0.181605 0.000000 0.000000 0.000000 -4.741676 -4.188021 1.331064 8.871348 3.288547 -4.563566 1.814018 0.435834 -1.115473 0.775507 1.123167 -0.066894 0.000000 0.000000 0.000000 1.311226 0.019648 -0.195006 -4.829060 -0.887186 1.475109 7.668770 3.602823 -4.450592 0.000000 0.000000 0.000000 0.892587 0.344831 -0.847626 0.379596 2.827533 0.317889 -2.391055 -2.908061 0.227391 -13.120778 -5.399023 -65.294505 -1.733306 -35.206978 0.625724 0.000000 0.000000 0.000000 2.589322 0.128761 -0.665533 4.453874 12.361000 -5.511692 -1.288365 -0.187108 -1.614151 -0.740798 2.599774 76.330943 -0.580820 36.812992 -0.030771 0.000000 0.000000 0.000000 
-3.127771 96.006454 -7.429428 0.000000 0.000000 0.000000 -3.897289 -7.688361 2.858190 -20.323667 6.793814 4.044558 29.877973 9.538622 -2.235449 -5.371017 0.553614 -2.124100 1.943865 0.229194 0.400555 0.000000 0.000000 0.000000 -3.358588 -6.366754 2.848589 -8.341259 -13.713025 -14.761021 22.886383 -2.097588 -5.121890 -9.451745 -1.141695 11.296299 -4.840309 -0.792196 0.017077 0.000000 0.000000 0.000000 -4.221092 -4.688043 1.428249 9.133587 3.182579 -4.684469 1.819584 0.408251 -1.168383 0.834198 1.381948 -0.132459 0.000000 0.000000 0.000000 1.401897 0.035880 -0.270398 -4.859794 -0.615816 1.618590 6.977306 3.996391 -4.777661 0.000000 0.000000 0.000000 1.017648 0.349113 -0.851890 0.401142 2.612775 0.428955 -2.151379 -2.999853 0.252828 -13.695609 -5.513065 -65.205173 -1.571056 -35.772778 0.624532 0.000000 0.000000 0.000000 2.640788 0.107282 -0.684838 4.409389 12.474311 -5.485175 -1.319317 -0.329670 -1.654009 -0.160141 2.172131 76.274758 -0.665145 37.121269 0.077861 0.000000 0.000000 0.000000 
-3.353913 95.973892 -7.811562 0.000000 0.000000 0.000000 -3.513624 -7.577185 2.537612 -21.168259 7.002952 4.575034 29.566270 9.764946 -2.323807 -4.948872 1.340762 -2.257023 2.254664 0.229221 0.189928 0.000000 0.000000 0.000000 -3.088985 -6.814237 2.489777 -9.069266 -13.504671 -14.440021 23.281543 -1.862126 -4.994008 -9.820557 -1.134898 11.994239 -4.749085 -0.803972 0.004915 0.000000 0.000000 0.000000 -3.620926 -5.421539 1.393711 9.543102 3.078082 -4.749972 1.851915 0.424271 -1.218536 0.914382 1.631125 -0.144586 0.000000 0.000000 0.000000 1.549011 0.109718 -0.368674 -4.919341 -0.282913 1.713352 5.831200 4.460710 -5.015987 0.000000 0.000000 0.000000 1.188995 0.416986 -0.839456 0.410396 2.342855 0.637230 -1.951406 -2.823794 0.189846 -14.447732 -5.762995 -65.216436 -1.103151 -35.835844 0.850896 0.000000 0.000000 0.000000 2.724898 0.132128 -0.690436 4.332312 12.511411 -5.630077 -1.400546 -0.254054 -1.696360 0.510194 1.595990 76.305125 -0.718605 37.531650 0.120801 0.000000 0.000000 0.000000 
-3.541366 95.929504 -8.206253 0.000000 0.000000 0.000000 -3.010644 -7.769116 2.083131 -22.179238 7.276108 5.319156 29.235474 10.222925 -2.557283 -4.565247 2.455040 -2.237157 2.546960 0.244570 -0.116959 0.000000 0.000000 0.000000 -2.703280 -7.527839 1.996579 -10.062930 -13.231950 -14.074628 24.001172 -1.534353 -4.791642 -10.442642 -1.107961 12.514617 -4.013828 -0.832453 0.245572 0.000000 0.000000 0.000000 -3.003502 -6.347663 1.235874 10.082767 2.980590 -4.747729 1.919157 0.486873 -1.240501 0.927450 1.703275 -0.030410 0.000000 0.000000 0.000000 1.755339 0.247090 -0.455559 -5.041437 0.061838 1.708470 4.250352 4.864977 -5.118219 0.000000 0.000000 0.000000 1.403465 0.540707 -0.791555 0.409153 2.019582 0.846415 -1.899825 -2.628514 0.171844 -15.416895 -6.076039 -65.290051 -0.460603 -35.247949 1.233593 0.000000 0.000000 0.000000 2.844520 0.208029 -0.665853 4.236257 12.488761 -6.050699 -1.468952 -0.052469 -1.607461 1.163642 1.081118 76.348264 -0.687532 37.871825 0.052602 0.000000 0.000000 0.000000 
-3.694479 95.848518 -8.680305 0.000000 0.000000 0.000000 -2.397616 -8.354004 1.599132 -23.270695 7.480913 6.168284 29.092409 10.840484 -2.941581 -4.229631 3.780374 -2.085683 2.785092 0.268635 -0.417036 0.000000 0.000000 0.000000 -2.156779 -8.594935 1.496011 -11.528675 -12.934275 -13.848976 25.107688 -1.119444 -4.507653 -11.062991 -0.993064 12.818221 -2.785567 -0.834439 0.675680 0.000000 0.000000 0.000000 -2.439248 -7.472221 0.964170 10.710710 2.882809 -4.681668 2.020457 0.597151 -1.224944 0.779263 1.652443 0.167156 0.000000 0.000000 0.000000 2.008600 0.427775 -0.507131 -5.261422 0.364656 1.583117 2.303036 5.068788 -5.037829 0.000000 0.000000 0.000000 1.668684 0.705769 -0.709528 0.408145 1.676292 1.011441 -1.915741 -2.543481 0.225007 -16.469727 -6.345969 -65.272682 0.137633 -34.018498 1.599614 0.000000 0.000000 0.000000 3.004576 0.320559 -0.610831 4.139898 12.417324 -6.768149 -1.544373 0.236189 -1.374945 1.835486 0.831584 76.363981 -0.525024 38.032802 -0.146809 0.000000 0.000000 0.000000 
-3.829543 95.715790 -9.295052 0.000000 0.000000 0.000000 -1.735929 -9.411571 1.200190 -24.370509 7.418544 7.015817 29.187960 11.431662 -3.426543 -3.929176 5.205357 -1.859675 2.944099 0.304828 -0.625580 0.000000 0.000000 0.000000 -1.460534 -9.920787 1.109989 -13.667240 -12.517887 -13.885945 26.504030 -0.395757 -4.183125 -11.281096 -0.664140 13.427439 -1.950781 -0.795985 1.016429 0.000000 0.000000 0.000000 -1.820550 -8.602867 0.639217 11.421390 2.764667 -4.570078 2.156880 0.743804 -1.188638 0.654339 1.376843 0.329578 0.000000 0.000000 0.000000 2.283201 0.635556 -0.517868 -5.602248 0.588175 1.382520 0.159764 5.077987 -4.823159 0.000000 0.000000 0.000000 1.980333 0.879808 -0.603891 0.416385 1.397315 1.091728 -1.896837 -2.729296 0.436367 -17.314948 -6.506634 -64.926515 0.457152 -32.254209 1.752064 0.000000 0.000000 0.000000 3.204942 0.464078 -0.545752 4.100818 12.355662 -7.706423 -1.567408 0.580401 -1.017810 2.608491 0.794029 76.185296 -0.254981 38.020241 -0.395881 0.000000 0.000000 0.000000 
